# xmcd
#
# Track frame offsets: 
#        150
#        9184
#        22301
#        31157
#        44744
#        54759
#        68526
#        79364
#        89995
#        100359
#        113597
#        125212
#        136055
#        146977
#        161642
#        172895
#
# Disc length: 2484 seconds
#
# Revision: 1
# Processed by: cddbd v1.5.2PL0 Copyright (c) Steve Scherf et al.
# Submitted via: ExactAudioCopy v0.99pb5
#
DISCID=dd09b210
DTITLE=Various Artist - Golden Age Of Country - Honky-Tonk Man [CD2]
DYEAR=2009
DGENRE=Country
TTITLE0=The Everly Brouthers - Wake Up Little Susie
TTITLE1=Jerry Lee Lewis - Whole Lot Of Shakin' Going On
TTITLE2=Johnnie and Jack - (Oh Baby Mine) I Get So Lonley
TTITLE3=Ray Price - City Lights
TTITLE4=Johnny Horton - Honky-Tonk Man
TTITLE5=Lefty Frizzell - Saginaw, Michigan
TTITLE6=Hank Locklin - Please Help Me, I'm Falling 
TTITLE7=Johnny Cash - Daddy Sang Bass
TTITLE8=George Jones - Walk Through This World With Me
TTITLE9=David Houston - Almost Persuaded
TTITLE10=Hank Snow - I've Been Everywhere
TTITLE11=Porter Wagoner - Green, Green Grass Of Home
TTITLE12=Buck Owens - My Heart Skips A Beat
TTITLE13=Jeannie Seely - Don't Touch Me
TTITLE14=Carl Smith - Hey Joe!
TTITLE15=The Davis Sisters - I Forgot More Than You'll Ever Know
EXTD=
EXTT0=
EXTT1=
EXTT2=
EXTT3=
EXTT4=
EXTT5=
EXTT6=
EXTT7=
EXTT8=
EXTT9=
EXTT10=
EXTT11=
EXTT12=
EXTT13=
EXTT14=
EXTT15=
PLAYORDER=
